<?xml version="1.0" standalone="no"?>
<!DOCTYPE svg PUBLIC "-//W3C//DTD SVG 20010904//EN"
 "http://www.w3.org/TR/2001/REC-SVG-20010904/DTD/svg10.dtd">
<svg version="1.0" xmlns="http://www.w3.org/2000/svg"
 width="28.000000pt" height="25.000000pt" viewBox="0 0 28.000000 25.000000"
 preserveAspectRatio="xMidYMid meet">
<metadata>
Created by potrace 1.16, written by Peter Selinger 2001-2019
</metadata>
<g transform="translate(0.000000,25.000000) scale(0.006236,-0.007396)"
fill="#000000" stroke="none">
<path d="M13 3373 c-10 -4 -13 -351 -13 -1689 l0 -1684 2245 0 2245 0 0 1665
0 1664 -37 26 -38 25 -2195 -1 c-1207 0 -2201 -3 -2207 -6z m4060 -268 c128
-37 191 -69 252 -126 93 -88 86 9 83 -1189 l-3 -1055 -23 -47 c-13 -27 -28
-48 -34 -48 -6 0 -27 -14 -46 -32 -47 -41 -138 -81 -232 -103 -69 -15 -212
-17 -1854 -16 -1724 1 -1781 1 -1860 20 -109 26 -208 73 -256 121 -74 74 -73
61 -73 855 1 1128 3 1395 14 1395 6 0 7 5 4 10 -3 6 -1 10 5 10 6 0 8 5 5 10
-3 6 -1 10 5 10 6 0 9 4 6 9 -9 14 78 87 141 119 65 33 138 58 204 71 24 5
839 9 1810 10 l1767 1 85 -25z"/>
<path d="M1300 2904 c-14 -2 -52 -9 -85 -15 -351 -61 -652 -287 -816 -611 -21
-43 -39 -84 -39 -93 0 -13 25 -15 175 -15 l175 0 26 53 c33 64 132 208 182
263 93 104 419 171 631 130 117 -22 214 -70 288 -142 68 -68 105 -129 138
-229 l22 -70 178 -3 177 -2 -7 32 c-24 120 -43 176 -92 277 -50 101 -66 124
-147 206 -71 71 -109 101 -171 132 -131 67 -220 85 -430 88 -99 2 -191 1 -205
-1z"/>
<path d="M3025 2864 c-66 -7 -151 -20 -190 -26 l-69 -13 -42 -287 c-23 -157
-45 -305 -49 -327 l-7 -41 156 0 c153 0 156 0 161 23 3 12 19 105 36 207 17
102 32 187 34 188 2 2 102 4 222 5 210 2 221 1 287 -23 50 -18 83 -38 117 -71
59 -58 79 -118 79 -241 l0 -88 163 2 162 3 3 122 c3 141 -11 214 -61 308 -64
119 -182 207 -342 252 -82 23 -489 27 -660 7z"/>
<path d="M269 1853 c-8 -57 -14 -176 -13 -283 0 -157 4 -198 22 -270 73 -279
202 -452 420 -560 121 -60 344 -97 512 -85 334 24 566 121 766 320 217 215
334 472 374 820 5 50 10 105 10 123 l0 32 -169 0 -169 0 -7 -77 c-26 -310
-131 -578 -310 -789 -42 -48 -48 -52 -162 -87 -161 -50 -233 -60 -376 -55 -98
4 -136 10 -196 31 -84 30 -164 80 -220 138 -49 50 -115 182 -137 274 -29 117
-22 404 13 543 l5 22 -175 0 -174 0 -14 -97z"/>
<path d="M2635 1928 c-3 -13 -19 -113 -35 -223 -44 -290 -97 -624 -131 -829
-16 -98 -28 -181 -25 -183 2 -2 50 -4 107 -5 105 0 175 8 184 22 4 6 135 782
135 800 0 4 120 10 268 13 190 4 286 10 334 21 229 53 392 154 492 305 74 110
84 101 -118 101 -97 0 -176 -3 -176 -7 -1 -5 -15 -25 -33 -45 -62 -73 -235
-107 -541 -108 l-179 0 6 38 c4 20 9 56 13 80 l7 42 -152 0 c-148 0 -151 0
-156 -22z"/>
</g>
</svg>
